<?xml version="1.0" encoding="utf-8"?>
<!-- Generator: Adobe Illustrator 28.2.0, SVG Export Plug-In . SVG Version: 6.00 Build 0)  -->
<svg version="1.1" id="Layer_1" xmlns="http://www.w3.org/2000/svg" xmlns:xlink="http://www.w3.org/1999/xlink" x="0px" y="0px"
	 viewBox="0 0 209.7 44" style="enable-background:new 0 0 209.7 44;" xml:space="preserve">
<style type="text/css">
	.st0{fill:url(#SVGID_1_);}
	.st1{fill:url(#SVGID_00000179626307409794247260000009300626964009069752_);}
	.st2{fill:url(#SVGID_00000000929571721775844100000017827487795320933033_);}
	.st3{fill:url(#SVGID_00000055696511867984714860000010211015140469023648_);}
	.st4{fill:url(#SVGID_00000101811098901373169020000006200702863631159469_);}
	.st5{fill:url(#SVGID_00000034074764586096194630000005470422460212553613_);}
	.st6{fill:url(#SVGID_00000103242680184655362750000006683346821121583251_);}
	.st7{fill:url(#SVGID_00000179621133094354784310000003607625745644087937_);}
	.st8{fill:url(#SVGID_00000113345421251774797240000015751220008822011322_);}
	.st9{fill:url(#SVGID_00000003098043906267290720000003418628450305596090_);}
	.st10{fill:url(#SVGID_00000013888020332291349420000005698006498215680165_);}
	.st11{fill:url(#SVGID_00000177483289210998094290000004318447359141722803_);}
	.st12{fill:url(#SVGID_00000156582450786428715870000017434361270155541951_);}
	.st13{fill:url(#SVGID_00000000186666374417208360000008734877205527857572_);}
	.st14{fill:url(#SVGID_00000086650374081086075220000009907771106003356592_);}
	.st15{fill:url(#SVGID_00000144315133387559521010000001796878164037650852_);}
	.st16{fill:url(#SVGID_00000021837930399351523410000017214312558954217383_);}
	.st17{fill:url(#SVGID_00000005256381985239634720000016022310342508759226_);}
	.st18{fill:#232E65;}
	.st19{fill:#FFFFFF;stroke:#232E65;stroke-width:2.6456;stroke-linecap:round;stroke-linejoin:round;stroke-miterlimit:10;}
	.st20{fill:#FFFFFF;stroke:#232E65;stroke-width:2.839;stroke-linecap:round;stroke-linejoin:round;stroke-miterlimit:10;}
	.st21{fill:url(#SVGID_00000111168689459487575410000015653272275472203185_);}
	.st22{fill:url(#SVGID_00000170253696554547664100000004498534566340499594_);}
	.st23{fill:url(#SVGID_00000147209176933707225280000008435701436640970150_);}
	.st24{fill:none;stroke:#232E65;stroke-width:1.8927;stroke-linecap:round;stroke-linejoin:round;stroke-miterlimit:10;}
	.st25{fill:url(#SVGID_00000032637426329781858750000003660477877028054442_);}
	.st26{fill:url(#SVGID_00000072992170115190573300000010584750910510855811_);}
	.st27{fill:url(#SVGID_00000116234521500884696920000014430615358562452360_);}
	.st28{fill:url(#SVGID_00000142170166669735292120000010860749050382425744_);}
	.st29{fill:url(#SVGID_00000056392327475258061530000006899185052891308955_);}
	.st30{fill:#FFFFFF;}
	.st31{fill:url(#SVGID_00000013888047177381572920000009900740798633934209_);}
	.st32{fill:url(#SVGID_00000116228033814571240400000000818715282308343942_);}
	.st33{fill:url(#SVGID_00000070823910533418446890000003319931757131151778_);}
	.st34{fill:url(#SVGID_00000113351290756183876030000014654957676723660692_);}
	.st35{fill:#FFFFFF;stroke:#000000;stroke-width:0.6371;stroke-linecap:round;stroke-linejoin:round;stroke-miterlimit:10;}
	.st36{fill:#FFFFFF;stroke:#000000;stroke-width:0.6836;stroke-linecap:round;stroke-linejoin:round;stroke-miterlimit:10;}
	.st37{fill:url(#SVGID_00000084516587837023289740000004093608786623202741_);}
	.st38{fill:url(#SVGID_00000105395135555513649650000005566118408027733157_);}
	.st39{fill:url(#SVGID_00000021090857422287523570000007441718790416363697_);}
	.st40{fill:none;stroke:#000000;stroke-width:0.4558;stroke-linecap:round;stroke-linejoin:round;stroke-miterlimit:10;}
	.st41{fill:url(#SVGID_00000080166558689826361400000003057005408723884195_);}
	.st42{fill:url(#SVGID_00000159471107545148342730000010424965399211206581_);}
	.st43{fill:url(#SVGID_00000112630422149613985910000007786459321565462955_);}
	.st44{fill:url(#SVGID_00000158020947343201852150000010214336776611047583_);}
	.st45{fill:url(#SVGID_00000075844779227887700250000003608335304429549732_);}
	.st46{fill:url(#SVGID_00000119826598950134047880000016067952671510699422_);}
	.st47{fill:url(#SVGID_00000103987328339305104100000007826156800053110962_);}
	.st48{fill:url(#SVGID_00000107586887199743552050000007268009287503920001_);}
	.st49{fill:url(#SVGID_00000049202334209894929620000007052872454889509527_);}
	.st50{fill:url(#SVGID_00000175322743701713788860000007534568301350077610_);}
	.st51{fill:url(#SVGID_00000104694528579512102610000005105089894795710887_);}
	.st52{fill:url(#SVGID_00000067934143863403287050000014468417631219260051_);}
	.st53{fill:url(#SVGID_00000100345047185984616740000010053908076681944962_);}
	.st54{fill:url(#SVGID_00000034067175625839868920000017585125566194332562_);}
	.st55{fill:url(#SVGID_00000124131762980747912650000001066435853240105145_);}
	.st56{fill:url(#SVGID_00000144302183949135572080000016622418741335476145_);}
	.st57{fill:url(#SVGID_00000127042118141256094550000014205028643842591156_);}
	.st58{fill:url(#SVGID_00000072996057854889102740000010402262235465170316_);}
	.st59{fill:url(#SVGID_00000029730189789818755250000009245960824897312395_);}
	.st60{fill:url(#SVGID_00000168818077735063727810000007846764293700089743_);}
	.st61{fill:url(#SVGID_00000082350429460581590630000016173077605734704820_);}
	.st62{fill:url(#SVGID_00000027578674138313612250000009816341675539293356_);}
	.st63{fill:url(#SVGID_00000039813010655922604280000012229162073603371184_);}
	.st64{fill:url(#SVGID_00000162310760929082337000000011012753213994677656_);}
	.st65{fill:url(#SVGID_00000099654634763861893640000001301651004551861385_);}
	.st66{fill:url(#SVGID_00000010298191337357986030000012321793511714283160_);}
	.st67{fill:url(#SVGID_00000021820946905035984390000005918695491756987302_);}
	.st68{fill:url(#SVGID_00000013183304252787137700000004907851235616478867_);}
	.st69{fill:url(#SVGID_00000027567840047736173650000001594498718974724766_);}
	.st70{fill:url(#SVGID_00000101061385366007658070000003075866210330868410_);}
	.st71{fill:url(#SVGID_00000064342196188485521300000008345903740863854768_);}
	.st72{fill:url(#SVGID_00000060750263597437046880000015411349360680356796_);}
	.st73{fill:url(#SVGID_00000116193883634845122060000016984715847390355099_);}
	.st74{fill:url(#SVGID_00000052092736451964423550000005301290965196152961_);}
	.st75{fill:url(#SVGID_00000132086984286495446280000016295256282054908331_);}
	.st76{fill:url(#SVGID_00000147184264050196329540000008289666019062605244_);}
	.st77{fill:url(#SVGID_00000163758906040717087310000003315757745152517553_);}
	.st78{fill:url(#SVGID_00000145740536707183440460000016333650047959581084_);}
	.st79{fill:url(#SVGID_00000016763250747415880880000018148946203051212944_);}
	.st80{fill:url(#SVGID_00000134970841906393654680000005922783088317460881_);}
	.st81{fill:url(#SVGID_00000002351117680529039190000000156696906106087610_);}
	.st82{fill:url(#SVGID_00000139269252183013537340000001516155723655259018_);}
	.st83{fill:url(#SVGID_00000013913890125686844790000007996602157096402093_);}
	.st84{fill:url(#SVGID_00000011729482990579593100000017113763734020374680_);}
	.st85{fill:#FFFFFF;stroke:#000000;stroke-width:0.6815;stroke-linecap:round;stroke-linejoin:round;stroke-miterlimit:10;}
	.st86{fill:#FFFFFF;stroke:#000000;stroke-width:0.7314;stroke-linecap:round;stroke-linejoin:round;stroke-miterlimit:10;}
	.st87{fill:url(#SVGID_00000180337406144883388170000017548375037060260783_);}
	.st88{fill:url(#SVGID_00000152943564547744853810000007641483054396026773_);}
	.st89{fill:url(#SVGID_00000112633622113783370840000015888332615889251245_);}
	.st90{fill:none;stroke:#000000;stroke-width:0.4876;stroke-linecap:round;stroke-linejoin:round;stroke-miterlimit:10;}
	.st91{fill:#FFFFFF;stroke:#000000;stroke-width:0.6831;stroke-linecap:round;stroke-linejoin:round;stroke-miterlimit:10;}
	.st92{fill:#FFFFFF;stroke:#000000;stroke-width:0.7331;stroke-linecap:round;stroke-linejoin:round;stroke-miterlimit:10;}
	.st93{fill:url(#SVGID_00000166637265176740997570000004448965115776885406_);}
	.st94{fill:url(#SVGID_00000134961621017710034100000002223520250969872785_);}
	.st95{fill:url(#SVGID_00000103250384430784794460000001973073322090254246_);}
	.st96{fill:none;stroke:#000000;stroke-width:0.4887;stroke-linecap:round;stroke-linejoin:round;stroke-miterlimit:10;}
</style>
<g>
	<g>
		<linearGradient id="SVGID_1_" gradientUnits="userSpaceOnUse" x1="59.4508" y1="28.7514" x2="59.4508" y2="12.7945">
			<stop  offset="6.417110e-02" style="stop-color:#C20233"/>
			<stop  offset="0.5307" style="stop-color:#DE011B"/>
			<stop  offset="1" style="stop-color:#FF0000"/>
		</linearGradient>
		<path class="st0" d="M55.5,22.5c0.5,2.1,1.9,3.1,4.4,3.1c2.5,0,3.6-1.1,3.6-2.6c0-1.7-0.9-2.5-4.5-3.4c-5-1.2-6.4-3-6.4-5.7
			c0-3.2,2.4-5.5,6.9-5.5c5,0,7,2.7,7.3,5.5H63c-0.3-1.4-1.1-2.7-3.7-2.7c-1.9,0-3.1,0.8-3.1,2.4c0,1.5,0.9,2.1,4.1,2.9
			c5.6,1.3,6.8,3.5,6.8,6.1c0,3.4-2.6,5.8-7.6,5.8c-4.9,0-7.3-2.5-7.8-5.9H55.5z"/>
		
			<linearGradient id="SVGID_00000060012866816243271580000009193572779497037739_" gradientUnits="userSpaceOnUse" x1="78.694" y1="28.7514" x2="78.694" y2="12.7945">
			<stop  offset="6.417110e-02" style="stop-color:#C20233"/>
			<stop  offset="0.5307" style="stop-color:#DE011B"/>
			<stop  offset="1" style="stop-color:#FF0000"/>
		</linearGradient>
		<path style="fill:url(#SVGID_00000060012866816243271580000009193572779497037739_);" d="M84.7,19.5h-9.4v5.6h10.4l-0.4,3H71.7
			V8.7h13.4v3h-9.8v4.8h9.4V19.5z"/>
		
			<linearGradient id="SVGID_00000012430096844926214700000009961214443885220482_" gradientUnits="userSpaceOnUse" x1="98.2596" y1="28.7514" x2="98.2596" y2="12.7945">
			<stop  offset="6.417110e-02" style="stop-color:#C20233"/>
			<stop  offset="0.5307" style="stop-color:#DE011B"/>
			<stop  offset="1" style="stop-color:#FF0000"/>
		</linearGradient>
		<path style="fill:url(#SVGID_00000012430096844926214700000009961214443885220482_);" d="M90.1,28.1V8.7h4.6
			c2.5,4.4,7.6,12.9,8.5,15h0c-0.2-2.2-0.2-5.5-0.2-8.6V8.7h3.3v19.4h-4.3c-2.3-3.9-7.7-13.4-8.7-15.7h0c0.1,1.9,0.2,5.6,0.2,9.1
			v6.5H90.1z"/>
		
			<linearGradient id="SVGID_00000009585599794359951350000016831687076549455542_" gradientUnits="userSpaceOnUse" x1="120.9106" y1="28.7514" x2="120.9106" y2="12.7945">
			<stop  offset="6.417110e-02" style="stop-color:#C20233"/>
			<stop  offset="0.5307" style="stop-color:#DE011B"/>
			<stop  offset="1" style="stop-color:#FF0000"/>
		</linearGradient>
		<path style="fill:url(#SVGID_00000009585599794359951350000016831687076549455542_);" d="M112.5,8.7h7.4c5.6,0,9.3,3.7,9.3,9.5
			c0,5.7-3.6,9.9-9.4,9.9h-7.3V8.7z M116.2,25.1h3.5c4,0,5.8-2.9,5.8-6.9c0-3.4-1.7-6.5-5.8-6.5h-3.5V25.1z"/>
	</g>
	<g>
		<path class="st30" d="M152.4,40.2c0,2.5-1.7,3.5-3.3,3.5c-1.8,0-3.2-1.3-3.2-3.4c0-2.2,1.5-3.5,3.3-3.5
			C151.1,36.7,152.4,38.1,152.4,40.2z M147.2,40.2c0,1.5,0.8,2.6,2,2.6c1.2,0,2-1.1,2-2.6c0-1.1-0.6-2.5-2-2.5
			C147.8,37.7,147.2,39,147.2,40.2z"/>
		<path class="st30" d="M154,38.7c0-0.7,0-1.3-0.1-1.8h1.1l0.1,1.1h0c0.3-0.6,1.1-1.2,2.2-1.2c0.9,0,2.4,0.6,2.4,2.8v4h-1.2v-3.8
			c0-1.1-0.4-2-1.5-2c-0.8,0-1.4,0.6-1.6,1.2c-0.1,0.2-0.1,0.4-0.1,0.6v4H154V38.7z"/>
		<path class="st30" d="M161.6,33.8h1.2v9.8h-1.2V33.8z"/>
		<path class="st30" d="M166.2,35c0,0.4-0.3,0.7-0.8,0.7c-0.4,0-0.7-0.3-0.7-0.7s0.3-0.8,0.8-0.8C165.9,34.3,166.2,34.6,166.2,35z
			 M164.8,43.5v-6.7h1.2v6.7H164.8z"/>
		<path class="st30" d="M168.1,38.7c0-0.7,0-1.3-0.1-1.8h1.1l0.1,1.1h0c0.3-0.6,1.1-1.2,2.2-1.2c0.9,0,2.4,0.6,2.4,2.8v4h-1.2v-3.8
			c0-1.1-0.4-2-1.5-2c-0.8,0-1.4,0.6-1.6,1.2c-0.1,0.2-0.1,0.4-0.1,0.6v4h-1.2V38.7z"/>
		<path class="st30" d="M176.4,40.4c0,1.6,1.1,2.3,2.3,2.3c0.9,0,1.4-0.2,1.8-0.3l0.2,0.9c-0.4,0.2-1.2,0.4-2.2,0.4
			c-2,0-3.3-1.4-3.3-3.4c0-2,1.2-3.6,3.1-3.6c2.2,0,2.8,1.9,2.8,3.1c0,0.2,0,0.4,0,0.6H176.4z M179.9,39.6c0-0.8-0.3-2-1.7-2
			c-1.2,0-1.8,1.1-1.9,2H179.9z"/>
		<path class="st30" d="M182.1,42.8c0-0.5,0.3-0.9,0.8-0.9c0.5,0,0.8,0.4,0.8,0.9c0,0.5-0.3,0.9-0.8,0.9
			C182.5,43.7,182.1,43.3,182.1,42.8z"/>
		<path class="st30" d="M190,43.3c-0.3,0.2-1,0.4-1.9,0.4c-2,0-3.3-1.4-3.3-3.4c0-2,1.4-3.5,3.6-3.5c0.7,0,1.3,0.2,1.7,0.4l-0.3,0.9
			c-0.3-0.2-0.7-0.3-1.4-0.3c-1.5,0-2.4,1.1-2.4,2.5c0,1.5,1,2.5,2.3,2.5c0.7,0,1.1-0.2,1.5-0.3L190,43.3z"/>
		<path class="st30" d="M197.4,40.2c0,2.5-1.7,3.5-3.3,3.5c-1.8,0-3.2-1.3-3.2-3.4c0-2.2,1.5-3.5,3.3-3.5
			C196.1,36.7,197.4,38.1,197.4,40.2z M192.1,40.2c0,1.5,0.8,2.6,2,2.6c1.2,0,2-1.1,2-2.6c0-1.1-0.6-2.5-2-2.5
			C192.7,37.7,192.1,39,192.1,40.2z"/>
		<path class="st30" d="M198.9,38.7c0-0.7,0-1.3-0.1-1.8h1.1L200,38h0c0.4-0.6,1-1.2,2.1-1.2c0.9,0,1.6,0.6,1.9,1.3h0
			c0.2-0.4,0.5-0.7,0.8-0.9c0.4-0.3,0.8-0.5,1.5-0.5c0.9,0,2.2,0.6,2.2,2.9v3.9h-1.2v-3.8c0-1.3-0.5-2-1.4-2c-0.7,0-1.2,0.5-1.4,1.1
			c-0.1,0.2-0.1,0.4-0.1,0.6v4.1h-1.2v-4c0-1.1-0.5-1.8-1.4-1.8c-0.7,0-1.3,0.6-1.5,1.2c-0.1,0.2-0.1,0.4-0.1,0.6v4h-1.2V38.7z"/>
	</g>
	<g>
		
			<linearGradient id="SVGID_00000140706205339679309270000000312734216881777031_" gradientUnits="userSpaceOnUse" x1="148.6631" y1="9.1224" x2="148.6631" y2="24.778">
			<stop  offset="0" style="stop-color:#FFD746"/>
			<stop  offset="0.5779" style="stop-color:#FFB04A"/>
			<stop  offset="1" style="stop-color:#FF984C"/>
		</linearGradient>
		<path style="fill:url(#SVGID_00000140706205339679309270000000312734216881777031_);" d="M140.9,28.6l-5-19.4h3.9
			c1.7,8,3,13.4,3.3,15.6h0c0.7-3.2,2.8-10.8,4-15.6h3.3c1.1,3.9,3.3,12.3,3.8,15.4h0c0.6-4,2.8-12.1,3.6-15.4h3.6L156,28.6h-3.8
			c-1.1-4.4-3.1-11.7-3.7-14.6h0c-0.7,3.3-2.7,10.5-3.8,14.6H140.9z"/>
		
			<linearGradient id="SVGID_00000106852946568779808330000000044948828876727198_" gradientUnits="userSpaceOnUse" x1="167.227" y1="9.1224" x2="167.227" y2="24.778">
			<stop  offset="0" style="stop-color:#FFD746"/>
			<stop  offset="0.5779" style="stop-color:#FFB04A"/>
			<stop  offset="1" style="stop-color:#FF984C"/>
		</linearGradient>
		<path style="fill:url(#SVGID_00000106852946568779808330000000044948828876727198_);" d="M169,9.2v19.4h-3.6V9.2H169z"/>
		
			<linearGradient id="SVGID_00000101062996804072750990000014368451896588655281_" gradientUnits="userSpaceOnUse" x1="181.2649" y1="9.1224" x2="181.2649" y2="24.778">
			<stop  offset="0" style="stop-color:#FFD746"/>
			<stop  offset="0.5779" style="stop-color:#FFB04A"/>
			<stop  offset="1" style="stop-color:#FF984C"/>
		</linearGradient>
		<path style="fill:url(#SVGID_00000101062996804072750990000014368451896588655281_);" d="M177.3,23c0.5,2.1,1.9,3.1,4.4,3.1
			c2.5,0,3.6-1.1,3.6-2.6c0-1.7-0.9-2.5-4.5-3.4c-5-1.2-6.4-3-6.4-5.7c0-3.2,2.4-5.5,6.9-5.5c5,0,7,2.7,7.3,5.5h-3.7
			c-0.3-1.4-1.1-2.7-3.7-2.7c-1.9,0-3.1,0.8-3.1,2.4c0,1.5,0.9,2.1,4.1,2.9c5.6,1.3,6.8,3.5,6.8,6.1c0,3.4-2.6,5.8-7.6,5.8
			c-4.9,0-7.3-2.5-7.8-5.9H177.3z"/>
		
			<linearGradient id="SVGID_00000010294076539233627720000010606744659702356613_" gradientUnits="userSpaceOnUse" x1="201.4966" y1="9.1224" x2="201.4966" y2="24.778">
			<stop  offset="0" style="stop-color:#FFD746"/>
			<stop  offset="0.5779" style="stop-color:#FFB04A"/>
			<stop  offset="1" style="stop-color:#FF984C"/>
		</linearGradient>
		<path style="fill:url(#SVGID_00000010294076539233627720000010606744659702356613_);" d="M193.5,9.2h3.6v7.8h8.6V9.2h3.6v19.4
			h-3.6V20h-8.6v8.6h-3.6V9.2z"/>
	</g>
	<path d="M0.5,7.1C5.7,6.7,11,6.4,16.2,6.3C25.1,6.1,34,6.4,42.8,7c-0.9,1.1-9.5,10.9-23.1,9.9C8.4,16.2,1.7,8.6,0.5,7.1z"/>
	<path d="M0.6,7.1c2.4,2.6,4.7,4.7,6.7,6.2c1,0.8,3.3,2.5,6.4,4.4c2.9,1.7,5.6,3,7.9,3.9c2.3-1.3,4.6-2.6,6.9-3.8
		c2.5-1.2,5.4-3,8.4-5.3c2.3-1.8,4.2-3.6,5.7-5.3c-0.9,0.5-2,1-3.4,1.5c0,0-1.5,0.6-3.1,1c-6.1,1.6-21.7,0.4-26,0.1
		C9.3,9.7,7.7,9.6,5.7,9C3.4,8.5,1.7,7.7,0.6,7.1z"/>
	<path class="st35" d="M7.2,14.6c-0.4-3.1-0.7-6.1-0.9-9.2C6.2,4.5,6.1,3.7,6,2.8c3.8-1,9.1-1.9,15.6-2c6.4,0,11.7,0.9,15.5,1.8
		c-0.1,1.8-0.2,3.5-0.4,5.3c-0.2,2.2-0.4,4.3-0.7,6.5c-2.3,1.4-4.7,2.7-7.2,3.9c-2.3,1.2-4.7,2.3-7.2,3.4c-2.4-0.7-5.3-1.8-8.3-3.3
		C10.9,17.1,8.8,15.8,7.2,14.6z"/>
	<path class="st36" d="M0.6,7.4c0,2.2,0.1,5.2,0.4,8.8c0.1,1.7,0.5,5.7,1.8,12c0.5,2.7,1.4,6.6,2.6,11.3c0.6,0.1,1.2,0.1,1.8,0.2
		c4.2,0.4,8.1,0.6,11.9,0.5c3.2,0.1,6.4,0,9.5-0.1c3.1-0.1,6.2-0.3,9.3-0.6c0.5-2,1.2-4.7,1.9-8c0.7-3,1.1-4.9,1.5-7.5
		c0.1-0.9,0.7-4.1,1-8.4c0.2-2.3,0.3-5.1,0.3-8.2c-2.2,2.4-4.2,4.1-5.6,5.2c-1.4,1.1-3.2,2.4-9.1,5.7c-2.7,1.5-4.9,2.7-6.3,3.5
		c-4.2-1.4-7.4-3.2-9.5-4.6c-3.1-2-5.4-4.1-7.5-5.9C2.9,9.7,1.6,8.3,0.6,7.4z"/>
	<path class="st36" d="M5.3,39.4c4.7-6.2,9.3-12.3,14-18.5"/>
	<path class="st36" d="M37.8,39.3c-4.7-6.2-9.4-12.4-14.2-18.7"/>
	
		<linearGradient id="SVGID_00000004520343182065169320000015749861776925955480_" gradientUnits="userSpaceOnUse" x1="14.1258" y1="21.9188" x2="2.0243" y2="23.6153">
		<stop  offset="0" style="stop-color:#FFF050"/>
		<stop  offset="0.172" style="stop-color:#FFEB4F"/>
		<stop  offset="0.3861" style="stop-color:#FFDB4D"/>
		<stop  offset="0.6216" style="stop-color:#FFC249"/>
		<stop  offset="0.7725" style="stop-color:#FFAE46"/>
	</linearGradient>
	<path style="fill:url(#SVGID_00000004520343182065169320000015749861776925955480_);" d="M0.8,11.4c-0.1,3.3,0.1,5.8,0.4,7.5
		C1.3,19.8,1.5,21.2,2,24c0.3,1.3,0.5,2.6,0.6,3.5c0.4,1.9,0.9,4.6,1.9,8.1c1.9-2.4,3.7-4.8,5.6-7.2c1.7-2.2,3.4-4.4,5.2-6.6
		c-0.3-0.1-0.7-0.3-1.2-0.5c-0.5-0.2-1.4-0.6-2.7-1.3c-2.4-1.3-4.1-2.5-4.8-3c-0.9-0.7-1.8-1.3-2.9-2.3C2.4,13.5,1.4,12.3,0.8,11.4z
		"/>
	
		<linearGradient id="SVGID_00000162331523975426315390000014368354612350346396_" gradientUnits="userSpaceOnUse" x1="21.7684" y1="40.6186" x2="21.0304" y2="26.1549">
		<stop  offset="6.417110e-02" style="stop-color:#C20233"/>
		<stop  offset="0.5307" style="stop-color:#DE011B"/>
		<stop  offset="1" style="stop-color:#FF0000"/>
	</linearGradient>
	<path style="fill:url(#SVGID_00000162331523975426315390000014368354612350346396_);" d="M19.9,24.7c0.6,0.2,1.2,0.4,1.7,0.6
		c0.6-0.3,1.1-0.6,1.7-0.9c3.8,5.1,7.6,10.2,11.4,15.2c-3.6,0.3-6.5,0.4-8.4,0.4c-6.4,0.2-10.4,0.1-12.9-0.1c-2-0.1-3.6-0.3-4.6-0.3
		C12.5,34.6,16.2,29.6,19.9,24.7z"/>
	
		<linearGradient id="SVGID_00000013876286399713669320000013140738064415783559_" gradientUnits="userSpaceOnUse" x1="44.2067" y1="23.4779" x2="31.3665" y2="22.4447">
		<stop  offset="0" style="stop-color:#6E00A1"/>
		<stop  offset="2.193135e-02" style="stop-color:#7000A6"/>
		<stop  offset="0.1538" style="stop-color:#7900BF"/>
		<stop  offset="0.2062" style="stop-color:#7214C5"/>
		<stop  offset="0.485" style="stop-color:#4E7CE4"/>
		<stop  offset="0.6783" style="stop-color:#37BEF7"/>
		<stop  offset="0.7688" style="stop-color:#2ED7FF"/>
		<stop  offset="1" style="stop-color:#2EFFFF"/>
	</linearGradient>
	<path style="fill:url(#SVGID_00000013876286399713669320000013140738064415783559_);" d="M27.5,21.4c0.3-0.2,2.3-1.3,4.5-2.7
		c4.1-2.4,6.2-3.7,8.1-5.5c1.2-1.1,2-2.1,2.5-2.8c0,4.7-0.4,8.5-0.8,11.2c-0.4,2.6-0.8,4.7-1.1,6.2c-0.7,3.5-1.4,6.3-1.9,8.1
		C35,31.1,31.2,26.2,27.5,21.4z"/>
	<path class="st40" d="M0.6,7.4c0,2.2,0.1,5.2,0.4,8.8c0.1,1.7,0.5,5.7,1.8,12c0.5,2.7,1.4,6.6,2.6,11.3c0.6,0.1,1.2,0.1,1.8,0.2
		c4.2,0.4,8.1,0.6,11.9,0.5c3.2,0.1,6.4,0,9.5-0.1c3.1-0.1,6.2-0.3,9.3-0.6c0.5-2,1.2-4.7,1.9-8c0.7-3,1.1-4.9,1.5-7.5
		c0.1-0.9,0.7-4.1,1-8.4c0.2-2.3,0.3-5.1,0.3-8.2c-2.2,2.4-4.2,4.1-5.6,5.2c-1.4,1.1-3.2,2.4-9.1,5.7c-2.7,1.5-4.9,2.7-6.3,3.5
		c-4.2-1.4-7.4-3.2-9.5-4.6c-3.1-2-5.4-4.1-7.5-5.9C2.9,9.7,1.6,8.4,0.6,7.4z"/>
	<g>
		<path d="M26.4,6.3c0,0.9-0.1,1.5-0.3,2.2c-0.1,0.5-0.2,0.9-0.4,1.4c-0.3,0.7-0.6,1.4-0.9,2.1c-0.2,0.6-0.5,1.1-0.8,1.6
			c-0.5,0.8-0.9,1.7-1.6,2.3c-0.4,0.4-1,0.3-1.3-0.2c-0.4-0.6-0.5-1.3-0.6-2c-0.1-0.4-0.2-0.9-0.2-1.3c-0.1-0.4-0.1-0.8-0.2-1.2
			c0-0.1-0.1-0.2-0.2-0.2c-0.2-0.1-0.4-0.2-0.6-0.3c-0.7-0.2-1.4-0.4-2.1-0.6c-0.7-0.3-1.4-0.5-1.9-1.2c-0.4-0.5-0.3-1.2,0.2-1.5
			c0.7-0.4,1.4-0.7,2.1-1c0.5-0.2,1-0.3,1.5-0.5c0.6-0.2,1.2-0.3,1.8-0.4c0.4-0.1,0.8-0.1,1.2-0.2c0.9-0.2,1.7-0.2,2.6-0.2
			c0.4,0,0.8,0.1,1.1,0.3C26.2,5.7,26.4,6.1,26.4,6.3z M21.7,15.4c0,0,0.1,0,0.1,0c0.3-0.3,0.6-0.7,0.8-1.1c0.5-0.8,0.9-1.6,1.3-2.4
			c0.2-0.5,0.4-1,0.6-1.5c0.3-0.7,0.5-1.3,0.7-2c0.2-0.6,0.3-1.2,0.3-1.8c0-0.2-0.1-0.3-0.2-0.4C25.2,6.1,25,6,24.8,6
			c-1-0.1-2,0-2.9,0.2c-0.8,0.1-1.5,0.3-2.3,0.5C19.1,6.8,18.5,7,18,7.2c-0.6,0.2-1.1,0.4-1.7,0.7c-0.2,0.1-0.4,0.2-0.4,0.4
			c0,0.1,0.2,0.3,0.3,0.5c0.7,0.6,1.6,0.8,2.5,1.1c0.5,0.2,1,0.3,1.5,0.4c0.2-0.1,0.3-0.3,0.5-0.4C21.1,9.4,21.5,9,22,8.7
			c0.2-0.2,0.5-0.2,0.6,0.1c0.1,0.2,0,0.4-0.2,0.6c-0.5,0.4-1,0.9-1.5,1.3c-0.1,0,0,0.2,0,0.3c0,0.1,0,0.1,0,0.2
			c0.1,0.7,0.2,1.3,0.3,2c0.1,0.4,0.1,0.8,0.2,1.1C21.5,14.6,21.6,15,21.7,15.4z"/>
	</g>
</g>
</svg>
